<svg xmlns="http://www.w3.org/2000/svg" viewBox="115.31 339.75 178.95 180.38">  
 <!-- Oiseau (masqué) -->   
     <path fill="#2798e1"  d="M187.467 339.746c.662.682 3.38 8.443 4.066 10.085a109.3 109.3 0 0 0 9.308 17.39c9.127 13.841 21.667 24.205 30.669 36.455l.34.467c-.576 7.94-.887 12.95 1.207 20.76 10.165-4.328 18.728-10.325 30.493-7.67 6.097 1.375 8.581 6.576 15.85 7.823 5.767.988 11.65 6.812 14.863 11.752-10.856.795-20.186.074-29.06 6.705-9.995 7.468-12.147 16.55-18.448 26.558-12.463 19.797-31.19 22.048-52.095 26.19-6.813 7.815-12.633 15.617-19.905 23.517-5.704.054-12.523.528-18.11.279-11.768-.525-23.165-7.656-33.058-13.571 15.932-6.827 41.011-19.04 54.686-30.243 1.637-1.342 11.092-14.92 14.07-18.41-12.795 4.299-19.582 1.724-31.022-5.173 1.657-1.844 4.342-4.079 6.255-5.768-2.955.907-5.68 1.443-8.693 2.072-8.249-4.196-11.989-8.649-17.897-15.382l4.454-1.931c.863-.246.958-.346 1.742-.808-.779-.453-5.792-.971-7.34-1.263-6.155-7.51-9.725-12.345-13.504-21.593q4.49.376 8.99.616a38 38 0 0 1-3.519-2.07c-11.296-7.37-13.9-17.212-16.495-29.461 5.235 3.18 11.933 6.084 17.58 8.679-14.242-12.93-17.474-23.292-16.873-41.974 21.821 29.938 54.005 42.729 86.72 57.5 5.654 9.935 10.528 18.775 20.38 25.435l5.126-.27c-2.029-7.21-1.583-13.55-1.442-20.974-3.998-4.895-9.98-11.097-14.296-15.908-11.35-12.653-17.895-21.39-25.084-36.5-3.803 19.202 8.938 31.783 20.68 45.092-9.578-6.77-18.828-14.602-28.25-21.237-.21 5.125-.1 6.81 1.324 11.715-2.309-1.074-3.207-1.675-5.327-3.123-1.606-6.652-1.213-12.267.777-18.838 2.81 3.012 5.02 5.163 8.06 7.943a34 34 0 0 1-1.64-4.128c-3.718-11.145-.554-20.76 4.418-30.738"></path>  
        <path fill="#65bff6" d="M169.807 495.031c1.86-1.596 4.336-2.94 6.59-3.892l-6.61 5.118z"></path>   
        <path fill="#2798e1" d="M260.663 425.327a2.48 2.48 0 1 1-.701 4.32 2.48 2.48 0 0 1 .7-4.32"></path>  
    </svg>