<svg xmlns="http://www.w3.org/2000/svg" viewBox="115.31 339.75 438.09 180.38">
  <defs>
    <!-- Masque oiseau : retire les zones blanches de l'intérieur -->
    <mask id="mask-bird">
      <rect x="115" y="339" width="175" height="182" fill="white"/>
      <path fill="black" d="M121.347 357.888c18.767 19.453 34.351 27.087 58.798 38.615 5.322 2.51 14.057 6.201 18.958 8.853 11.213 19.156 17.758 25.638 38.141 35.03a268 268 0 0 0-9.55-9.413c13.197-2.443 24.827-13.434 38.216-7.61 1.827.794 3.754 2.153 4.097 4.25l-.48 1.503q2.216-.684 4.425-1.394c5.63 1.578 8.576 2.774 13.488 6.135-21.725-1.716-32.27 8.04-41.025 26.8-8.98 19.239-25.138 25.546-44.521 29.2-2.798.593-7.133 1.146-9.756 1.79-6.711 7.9-13.12 15.607-20.059 23.324l-6.948-.084c3.895-4.387 14.443-15.72 17.377-19.97-7.575 6.37-17.989 14.454-25.024 20.788l-8.47-2.237c7.16-5.666 13.754-11.493 20.773-17.21l.02-1.227c-8.622 5.183-18.667 11.923-27.236 16.541l-8.085-4.395c9.975-4.629 41.038-20.081 47.77-27.924 10.415-12.134 10.71-19.626 27.12-31.979-14.345 4.912-24.037 11.708-38.428 4.638a39 39 0 0 1-1.226-.63c8.385-7.806 16.323-13.476 25.68-20.128-10.768 4.753-23.993 10.748-35.599 12.714-4.117-2.221-7.086-4.884-10.216-8.37 13.497-4.716 24.369-6.808 37.87-10.292-14.507.268-30.32 2.498-44.703-.242-3.646-3.866-5.47-6.879-8.14-11.37 15.537 1.667 33.714 2.482 49.389 3.481l-.56-.181c-21.372-6.752-50.618-3.632-59.818-29.43 14.01 6.845 43.2 16.933 58.933 20.487-25.095-11.357-53.445-20.2-61.21-50.063"/>
    </mask>
    <!-- Masque lettre B : retire les contre-formes intérieures -->
    <mask id="mask-b">
      <rect x="436" y="425" width="42" height="44" fill="white"/>
      <path fill="black" d="M445.213 449.76c5.07-.105 27.545-1.87 18.446 9.674-4.32 2.535-13.155 1.726-18.477 1.693q-.016-5.684.031-11.368"/>
      <path fill="black" d="M445.18 432.683c5.585-.088 24.156-1.784 16.748 9.193-4.688 2.583-11.412 1.847-16.77 1.757z"/>
    </mask>
  </defs>

  <!-- Oiseau (masqué) -->
  <path fill="#2798e1" mask="url(#mask-bird)" d="M187.467 339.746c.662.682 3.38 8.443 4.066 10.085a109.3 109.3 0 0 0 9.308 17.39c9.127 13.841 21.667 24.205 30.669 36.455l.34.467c-.576 7.94-.887 12.95 1.207 20.76 10.165-4.328 18.728-10.325 30.493-7.67 6.097 1.375 8.581 6.576 15.85 7.823 5.767.988 11.65 6.812 14.863 11.752-10.856.795-20.186.074-29.06 6.705-9.995 7.468-12.147 16.55-18.448 26.558-12.463 19.797-31.19 22.048-52.095 26.19-6.813 7.815-12.633 15.617-19.905 23.517-5.704.054-12.523.528-18.11.279-11.768-.525-23.165-7.656-33.058-13.571 15.932-6.827 41.011-19.04 54.686-30.243 1.637-1.342 11.092-14.92 14.07-18.41-12.795 4.299-19.582 1.724-31.022-5.173 1.657-1.844 4.342-4.079 6.255-5.768-2.955.907-5.68 1.443-8.693 2.072-8.249-4.196-11.989-8.649-17.897-15.382l4.454-1.931c.863-.246.958-.346 1.742-.808-.779-.453-5.792-.971-7.34-1.263-6.155-7.51-9.725-12.345-13.504-21.593q4.49.376 8.99.616a38 38 0 0 1-3.519-2.07c-11.296-7.37-13.9-17.212-16.495-29.461 5.235 3.18 11.933 6.084 17.58 8.679-14.242-12.93-17.474-23.292-16.873-41.974 21.821 29.938 54.005 42.729 86.72 57.5 5.654 9.935 10.528 18.775 20.38 25.435l5.126-.27c-2.029-7.21-1.583-13.55-1.442-20.974-3.998-4.895-9.98-11.097-14.296-15.908-11.35-12.653-17.895-21.39-25.084-36.5-3.803 19.202 8.938 31.783 20.68 45.092-9.578-6.77-18.828-14.602-28.25-21.237-.21 5.125-.1 6.81 1.324 11.715-2.309-1.074-3.207-1.675-5.327-3.123-1.606-6.652-1.213-12.267.777-18.838 2.81 3.012 5.02 5.163 8.06 7.943a34 34 0 0 1-1.64-4.128c-3.718-11.145-.554-20.76 4.418-30.738"/>
  <path fill="#65bff6" d="M169.807 495.031c1.86-1.596 4.336-2.94 6.59-3.892l-6.61 5.118z"/>
  <path fill="#2798e1" d="M260.663 425.327a2.48 2.48 0 1 1-.701 4.32 2.48 2.48 0 0 1 .7-4.32"/>

  <!-- Lettre B (masquée) -->
  <path fill="#2798e1" mask="url(#mask-b)" d="M436.685 426.161c5.003-.09 9.975-.077 15.034-.086 6.164-.012 14.185-.37 18.573 4.865 1.82 2.173 2.156 5.346 1.772 8.05-.486 3.421-2.736 5.176-5.274 7.07 6.55 3.44 9.43 7.805 6.437 15.236-6.011 9.032-26.379 6.477-36.558 6.394z"/>

  <!-- Lettres N M I L E (inchangées) -->
  <path fill="#2798e1" d="m416.917 425.98 7.481-.042c.322 13.453.075 28.204.059 41.696l-8.052.003-.004-12.335-.096-13.87c-3.29 5.303-6.347 10.754-9.535 16.117-1.476 2.482-2.557 4.93-5.724 5.047-3.326-1.462-11.675-17.18-14.304-21.44.321 8.335.084 18.042.064 26.481l-8.09.016-.009-41.597 7.522-.084a994 994 0 0 0 15.4 26.501 746 746 0 0 0 15.288-26.494"/>
  <path fill="#2798e1" d="m307.815 425.963 7.285.012c7.283 8.952 14.322 17.744 21.737 26.63l.161-26.52 8.632-.055.04 41.554-7.114.045c-7.041-7.786-15.125-18.04-22.058-26.21l-.05 26.119-8.521.04z"/>
  <path fill="#2798e1" d="m521.232 425.938 31.306-.039.01 7.097-22.692.044.012 10.196 19.739-.064.036 6.811-19.38.057c-.82 1.166-.456 8.681-.436 10.602l23.543-.086.038 7.123-32.197-.001z"/>
  <path fill="#2798e1" d="m483.545 426.02 8.76-.022a3165 3165 0 0 0-.002 34.534l21.846-.072-.013 7.264-30.576-.039z"/>
  <path fill="#2798e1" d="m359.605 426.084 6.776-.042c.028 3.831.414 40.276-.225 41.335l-1.023.198-7.3.06c0-4.616-.397-40.293.344-41.412z"/>
</svg>
